<svg width="257" height="87" viewBox="0 0 257 87" fill="none" xmlns="http://www.w3.org/2000/svg">
<g id="Series 2">
<ellipse id="Ellipse 38" cx="1.94178" cy="63.6989" rx="1.18909" ry="1.03354" fill="#6976EB"/>
<line id="Line 88" y1="-0.5" x2="38.3643" y2="-0.5" transform="matrix(0.588899 -0.808206 0.876036 0.482245 2.33813 63.6989)" stroke="#6976EB"/>
<ellipse id="Ellipse 39" cx="24.9308" cy="32.6926" rx="1.18909" ry="1.03354" fill="#6976EB"/>
<line id="Line 98" y1="-0.5" x2="47.3037" y2="-0.5" transform="matrix(0.485989 -0.873965 0.921947 0.387317 231.833 85.0588)" stroke="#6976EB"/>
<ellipse id="Ellipse 40" cx="47.9198" cy="85.0588" rx="1.18909" ry="1.03354" fill="#6976EB"/>
<line id="Line 93" y1="-0.5" x2="25.6467" y2="-0.5" transform="matrix(0.896377 -0.443293 0.547688 0.836683 116.887 74.7233)" stroke="#6976EB"/>
<ellipse id="Ellipse 41" cx="70.9091" cy="54.397" rx="1.18909" ry="1.03354" fill="#6976EB"/>
<line id="Line 90" y1="-0.5" x2="38.3229" y2="-0.5" transform="matrix(0.599879 -0.800091 0.870108 0.492861 47.9199 85.0588)" stroke="#6976EB"/>
<ellipse id="Ellipse 42" cx="93.8981" cy="32.6926" rx="1.18909" ry="1.03354" fill="#6976EB"/>
<line id="Line 91" y1="-0.5" x2="31.6161" y2="-0.5" transform="matrix(0.727132 -0.686498 0.780791 0.624793 70.9092 54.397)" stroke="#6976EB"/>
<ellipse id="Ellipse 43" cx="116.887" cy="74.7234" rx="1.18909" ry="1.03354" fill="#6976EB"/>
<line id="Line 89" y1="-0.5" x2="57.5058" y2="-0.5" transform="matrix(0.39977 0.916615 -0.949771 0.312946 24.9309 32.6926)" stroke="#6976EB"/>
<ellipse id="Ellipse 44" cx="139.877" cy="63.3544" rx="1.18909" ry="1.03354" fill="#6976EB"/>
<line id="Line 92" y1="-0.5" x2="47.907" y2="-0.5" transform="matrix(0.479869 0.87734 -0.924204 0.3819 93.8982 32.6926)" stroke="#6976EB"/>
<ellipse id="Ellipse 45" cx="162.866" cy="1.34177" rx="1.18909" ry="1.03354" fill="#6976EB"/>
<line id="Line 97" y1="-0.5" x2="37.5011" y2="-0.5" transform="matrix(0.613025 0.790064 -0.862702 0.505713 208.844 55.4305)" stroke="#6976EB"/>
<ellipse id="Ellipse 46" cx="185.855" cy="65.4215" rx="1.18909" ry="1.03354" fill="#6976EB"/>
<line id="Line 94" y1="-0.5" x2="66.1354" y2="-0.5" transform="matrix(-0.347381 0.937724 -0.962996 -0.269515 162.865 1.3418)" stroke="#6976EB"/>
<ellipse id="Ellipse 47" cx="208.844" cy="55.4305" rx="1.18909" ry="1.03354" fill="#6976EB"/>
<line id="Line 95" y1="-0.5" x2="68.0787" y2="-0.5" transform="matrix(0.337684 0.94126 -0.965177 0.261599 162.865 1.3418)" stroke="#6976EB"/>
<ellipse id="Ellipse 48" cx="231.833" cy="85.0588" rx="1.18909" ry="1.03354" fill="#6976EB"/>
<line id="Line 96" y1="-0.5" x2="25.0662" y2="-0.5" transform="matrix(0.917133 -0.398581 0.498634 0.866813 185.855 65.4215)" stroke="#6976EB"/>
<ellipse id="Ellipse 49" cx="254.822" cy="43.7171" rx="1.18909" ry="1.03354" fill="#6976EB"/>
</g>
</svg>
