<svg width="257" height="46" viewBox="0 0 257 46" fill="none" xmlns="http://www.w3.org/2000/svg">
<g id="Series 1 graph">
<ellipse id="Ellipse 61" cx="1.94178" cy="44.4033" rx="1.18909" ry="1.03354" fill="#ADB4F3"/>
<line id="Line 109" y1="-0.5" x2="39.4341" y2="-0.5" transform="matrix(0.582974 -0.81249 0.879142 0.47656 1.94165 45.0923)" stroke="#ADB4F3"/>
<ellipse id="Ellipse 62" cx="25.3273" cy="12.0189" rx="1.18909" ry="1.03354" fill="#ADB4F3"/>
<line id="Line 110" y1="-0.5" x2="31.6161" y2="-0.5" transform="matrix(0.727132 0.686498 -0.780791 0.624793 25.3271 12.0189)" stroke="#ADB4F3"/>
<ellipse id="Ellipse 63" cx="48.3163" cy="33.7234" rx="1.18909" ry="1.03354" fill="#ADB4F3"/>
<line id="Line 111" y1="-0.5" x2="25.3488" y2="-0.5" transform="matrix(0.906912 -0.42132 0.523812 0.851834 48.3164 33.7233)" stroke="#ADB4F3"/>
<ellipse id="Ellipse 64" cx="71.3053" cy="23.0434" rx="1.18909" ry="1.03354" fill="#ADB4F3"/>
<line id="Line 112" y1="-0.5" x2="25.139" y2="-0.5" transform="matrix(0.898712 -0.43854 0.542562 0.840016 71.3057 23.0434)" stroke="#ADB4F3"/>
<ellipse id="Ellipse 65" cx="93.8981" cy="12.0189" rx="1.18909" ry="1.03354" fill="#ADB4F3"/>
<line id="Line 113" y1="-0.5" x2="39.6665" y2="-0.5" transform="matrix(0.589552 0.807731 -0.87569 0.482873 93.8982 12.0189)" stroke="#ADB4F3"/>
<ellipse id="Ellipse 66" cx="117.284" cy="44.0588" rx="1.18909" ry="1.03354" fill="#ADB4F3"/>
<line id="Line 114" y1="-0.5" x2="39.2044" y2="-0.5" transform="matrix(0.576281 -0.817252 0.882575 0.470172 117.284 44.0588)" stroke="#ADB4F3"/>
<ellipse id="Ellipse 67" cx="139.877" cy="12.0189" rx="1.18909" ry="1.03354" fill="#ADB4F3"/>
<line id="Line 115" y1="-0.5" x2="25.5676" y2="-0.5" transform="matrix(0.914653 -0.40424 0.504944 0.863152 139.876 12.0189)" stroke="#ADB4F3"/>
<ellipse id="Ellipse 68" cx="163.262" cy="1.68351" rx="1.18909" ry="1.03354" fill="#ADB4F3"/>
<line id="Line 116" y1="-0.5" x2="39.7146" y2="-0.5" transform="matrix(0.578858 0.815428 -0.881262 0.472628 163.262 1.68347)" stroke="#ADB4F3"/>
<ellipse id="Ellipse 69" cx="186.251" cy="33.7234" rx="1.18909" ry="1.03354" fill="#ADB4F3"/>
<line id="Line 117" y1="-0.5" x2="24.8446" y2="-0.5" transform="matrix(0.909363 0.416004 -0.517967 0.855401 186.251 33.7233)" stroke="#ADB4F3"/>
<ellipse id="Ellipse 70" cx="208.844" cy="44.0588" rx="1.18909" ry="1.03354" fill="#ADB4F3"/>
<line id="Line 118" y1="-0.5" x2="25.3488" y2="-0.5" transform="matrix(0.906912 -0.42132 0.523812 0.851834 208.844 44.0588)" stroke="#ADB4F3"/>
<ellipse id="Ellipse 71" cx="231.833" cy="33.3788" rx="1.18909" ry="1.03354" fill="#ADB4F3"/>
<line id="Line 119" y1="-0.5" x2="25.3488" y2="-0.5" transform="matrix(0.906912 0.42132 -0.523812 0.851834 231.833 33.3788)" stroke="#ADB4F3"/>
<ellipse id="Ellipse 72" cx="254.822" cy="44.0588" rx="1.18909" ry="1.03354" fill="#ADB4F3"/>
</g>
</svg>
